<svg width="40" height="40" viewBox="0 0 40 40" fill="none" xmlns="http://www.w3.org/2000/svg">
<rect width="40" height="40" fill="#151414"/>
<path fill-rule="evenodd" clip-rule="evenodd" d="M7.9956 37.0442H4.01792C4.00802 37.0442 4 37.0362 4 37.0263V33.59C4 31.6103 5.60488 30.0054 7.58461 30.0054H13.6399C13.6498 30.0054 13.6578 30.0134 13.6578 30.0233V30.6164C13.6578 31.3588 13.056 31.9606 12.3136 31.9606H9.35775C9.34785 31.9606 9.33983 31.9686 9.33983 31.9785V35.7C9.33983 36.4424 8.738 37.0442 7.9956 37.0442ZM13.3024 37.0211L15.4504 30.018C15.4527 30.0105 15.4596 30.0054 15.4675 30.0054H19.1539C21.063 30.0054 22.7625 31.2151 23.3876 33.019L24.7742 37.0204C24.7783 37.0321 24.7696 37.0442 24.7573 37.0442H20.1384C19.5406 37.0442 19.0147 36.6495 18.8477 36.0756L18.7872 35.8677C18.7849 35.8601 18.7779 35.8548 18.77 35.8548H15.5997C15.5917 35.8548 15.5846 35.8602 15.5825 35.8679L15.2601 37.0311C15.258 37.0389 15.2509 37.0442 15.2429 37.0442H13.3195C13.3075 37.0442 13.2988 37.0326 13.3024 37.0211ZM25.6065 30.0233V30.6327C25.6065 31.3751 26.2084 31.9769 26.9508 31.9769H29.5091C29.7385 31.9769 29.9245 32.1629 29.9245 32.3924C29.9245 32.6219 29.7385 32.8079 29.5091 32.8079H27.1901C27.1802 32.8079 27.1722 32.8159 27.1722 32.8258V34.2075C27.1722 34.2174 27.1802 34.2254 27.1901 34.2254H29.5009C29.7349 34.2254 29.9245 34.4151 29.9245 34.6491C29.9245 34.883 29.7349 35.0727 29.5009 35.0727H25.6245C25.6146 35.0727 25.6065 35.0807 25.6065 35.0906V35.7C25.6065 36.4424 26.2084 37.0442 26.9508 37.0442H33.3993C34.4293 37.0442 35.2644 36.2092 35.2644 35.1792V34.8866C35.2644 34.1935 34.788 33.5913 34.1136 33.4316C34.1069 33.43 34.1057 33.421 34.1118 33.4177L34.3333 33.3005C34.9061 32.9975 35.2644 32.4025 35.2644 31.7545C35.2644 30.7885 34.4813 30.0054 33.5152 30.0054H25.6245C25.6146 30.0054 25.6065 30.0134 25.6065 30.0233ZM16.6702 31.9736L15.988 34.4145C15.9848 34.4259 15.9934 34.4372 16.0053 34.4372H18.3806C18.3925 34.4372 18.4011 34.4258 18.3978 34.4144L17.9731 32.93C17.8089 32.3561 17.2842 31.9606 16.6874 31.9606C16.6794 31.9606 16.6724 31.9659 16.6702 31.9736Z" fill="white"/>
<path fill-rule="evenodd" clip-rule="evenodd" d="M16.211 12.0589C17.0824 10.5928 18.686 7.55931 18.1636 7.09458C18.3092 7.15515 18.5177 7.20835 18.754 7.21795C18.708 7.21113 18.6613 7.20197 18.6141 7.1903C18.2055 7.08932 18.0541 6.74524 18.1093 6.55269C18.1166 6.52732 18.1408 6.51204 18.1672 6.51036L20.1374 6.38469C20.1459 6.38415 20.154 6.385 20.1615 6.387C20.1448 6.30772 20.0935 6.23594 20.0116 6.19487C19.5999 5.98824 18.8805 5.79518 17.9955 6.01392C17.9816 5.93305 17.9381 5.7277 17.8755 5.55324C20.2997 5.83174 25.7507 5.46971 28.3838 2.11853C28.4218 2.07026 28.3872 2 28.3258 2H26.4408C26.336 2.01438 26.0706 2.10702 25.8471 2.36249C25.698 2.58995 25.4667 2.88572 25.1756 3.17925L25.3173 3.05924L25.8653 2.44974L26.1393 2.17885L26.4133 2.11113H27.5093C26.9065 2.16531 26.4688 2.65291 26.3547 2.78835L25.6697 3.5333C23.8886 5.09092 22.7241 4.88775 22.2446 4.75231C22.106 4.71314 22.0066 4.6787 21.9319 4.65281L21.9319 4.6528C21.7999 4.60707 21.745 4.58803 21.6867 4.61686C19.7094 5.53679 19.2133 5.18758 18.857 4.93681C18.7937 4.8922 18.7347 4.85071 18.6727 4.82003C18.4729 4.7213 18.3056 4.76651 18.0369 4.83907C17.7527 4.91583 17.3552 5.0232 16.6861 5.0232C15.6449 5.0232 14.8823 4.25567 14.6311 3.87191L14.8366 4.00736L15.3161 4.27825L15.7956 4.48142L16.2066 4.61686L16.7546 4.75231L17.4396 4.68458L17.9877 4.54914L18.4095 4.37041C18.3509 4.37134 18.2925 4.38297 18.2373 4.40628C17.4922 4.72104 16.0958 4.92532 14.7936 3.91112C14.6849 3.82646 14.5325 3.81835 14.4212 3.89953C14.2554 4.02047 14.2609 4.26968 14.432 4.38314L15.4322 5.04666C15.5806 5.16174 15.874 5.43505 15.86 5.60766C15.7465 5.59903 15.4375 5.60766 15.1092 5.71123C14.9829 5.75107 14.8476 5.80889 14.6996 5.87211C14.3666 6.01434 13.9696 6.18394 13.468 6.23771C12.8883 6.29985 12.4233 6.3484 12.2632 6.36491C12.0508 6.39731 11.6382 6.53806 11.687 6.84187C11.7101 6.98488 11.752 7.15264 11.7964 7.30785C11.8122 7.36308 11.8347 7.41487 11.863 7.46263C11.8456 7.41088 11.8314 7.36058 11.8226 7.32574L11.7541 6.98713C11.8637 7.25802 14.0831 7.32572 15.1791 7.32572C15.9098 7.30314 17.0834 7.48825 15.9326 8.40928C14.7818 9.3303 10.8407 12.5404 9.01403 14.0302L9.15104 13.7594L9.39453 13.2092C9.18107 13.6418 9.05341 13.925 9.00757 14.0353C8.96418 14.1726 8.93813 14.4987 9.18114 14.7046C9.23155 14.7473 9.31141 14.8205 9.40594 14.9071L9.40596 14.9072C9.68449 15.1624 10.0904 15.5344 10.2453 15.5873L7.41676 16.1826L10.3012 15.8106C10.3627 15.8027 10.3881 15.7274 10.344 15.6837L10.2926 15.6329C10.2777 15.6182 10.27 15.5987 10.2702 15.5792C10.2642 15.5823 10.2577 15.5847 10.251 15.5861L10.2479 15.5868C10.4917 15.2425 10.8766 14.7185 11.2439 14.2221C11.7579 13.5216 12.2375 12.8751 12.3021 12.8113C12.4391 12.6758 12.7131 12.4727 13.6721 12.3372C14.4393 12.2289 15.7271 12.1115 16.2752 12.0663H16.6872C16.523 12.063 16.3709 12.0597 16.2326 12.0565L16.211 12.0589ZM18.5089 4.37901L18.8097 4.61686L19.0837 4.75231L19.5632 4.82003H20.2482L21.2072 4.34597L21.6867 4.07508L22.1662 4.27825L22.7142 4.41369L23.6047 4.27825L24.3582 3.87191L24.463 3.78313C23.936 4.14924 23.3185 4.40509 22.6781 4.33895C22.5232 4.31275 22.2307 4.24197 21.9878 4.12837C21.8212 4.05047 21.6137 4.04618 21.4615 4.1494C20.7742 4.61542 19.5939 5.106 18.7153 4.46825C18.6535 4.42336 18.5825 4.39294 18.5089 4.37901ZM13.5351 8.00296L13.3667 7.97667C13.8109 8.06354 14.1848 8.15179 14.2711 8.21416L11.2641 10.732C11.2161 10.7695 11.1591 10.8166 11.0954 10.8722L11.4801 10.5764L12.4391 9.76375L14.2886 8.20613L14.1516 8.13841L13.5351 8.00296ZM10.6163 11.3356C10.4936 11.4661 10.367 11.6103 10.2444 11.7646L10.6163 11.3356ZM7.14163 16.2405L7.14589 16.2396C7.13568 16.243 7.1254 16.2467 7.11514 16.2505C7.12466 16.2465 7.13354 16.2431 7.14163 16.2405ZM6.77713 16.6437C6.7968 16.5659 6.83074 16.5003 6.87099 16.4459C6.80589 16.6127 6.67805 17.0579 6.61652 17.281C6.60595 17.3228 6.59929 17.3956 6.61151 17.4832C6.591 17.4021 6.58951 17.3389 6.59489 17.3044C6.6296 17.1871 6.71464 16.8908 6.77713 16.6437ZM8.26051 22.4956L8.23541 22.5287L8.29008 22.4499L8.26051 22.4956ZM9.77745 21.0734L9.38398 20.8202L9.45432 20.7127L9.49302 20.7466C9.93232 21.1317 10.3716 21.5167 10.5211 21.6152C10.5409 21.6283 10.5613 21.6419 10.5825 21.6561C10.7812 21.7892 11.0467 21.9669 11.4801 22.0893C11.6535 22.1383 11.9361 22.1799 12.2317 22.2128C12.1572 22.2068 12.0832 22.2008 12.0104 22.1951C11.3144 22.1406 10.7147 21.7772 10.4964 21.5984C9.93112 22.2385 9.4199 22.8453 9.04678 23.3285C8.50872 24.0254 8.29996 24.5027 8.24136 24.7897C8.21651 24.9115 8.06687 25.0768 7.94265 25.0804C7.88644 25.0821 7.82334 25.0853 7.75373 25.0908C7.51907 25.1094 7.15199 25.9886 6.93549 26.599C6.88162 26.7508 6.73927 26.8544 6.57814 26.8544H5.68643C5.60168 26.8544 5.52654 26.8275 5.4668 26.7832C5.56411 26.7044 5.69329 26.5544 5.8729 26.2881C6.06588 26.0019 6.17269 25.7997 6.257 25.64C6.4121 25.3464 6.4911 25.1968 6.89049 24.9336C7.3837 24.6085 9.04677 22.2247 9.77745 21.0734ZM13.8416 22.135C13.8563 22.172 13.8439 22.2007 13.8091 22.2224C13.8071 22.1548 13.7206 22.0597 13.6135 21.9538C13.5867 21.9273 13.5494 21.8732 13.5099 21.8158C13.4549 21.7359 13.3955 21.6497 13.3537 21.6224C13.3449 21.6166 13.3344 21.6157 13.3239 21.6169C13.2231 21.6282 13.1037 21.6492 12.973 21.6722L12.9729 21.6722C12.5369 21.7489 11.9751 21.8477 11.5585 21.6829C10.8735 21.4121 9.50345 20.2608 9.22945 19.9899C8.95544 19.719 7.10593 17.6873 7.03742 17.4841C6.9689 17.281 7.10592 16.7392 7.24292 16.6715C7.29625 16.6451 8.02755 16.5161 8.82754 16.375L8.82762 16.375L8.82768 16.375C9.6717 16.2261 10.5921 16.0638 10.8735 15.9943C10.9932 15.9647 10.9566 15.9139 10.9071 15.8453C10.8576 15.7764 10.795 15.6896 10.8636 15.5879C11.2671 14.8916 12.2428 13.2102 13.134 13.0145C13.7505 12.879 15.5216 12.9467 17.9192 13.1499C18.9474 13.237 20.6147 13.1739 22.1084 13.1174H22.1084H22.1084H22.1085H22.1085H22.1085H22.1085H22.1086C23.4011 13.0685 24.5635 13.0244 25.0694 13.087C26.3614 13.2466 27.814 14.118 28.3273 14.6304C28.3639 14.667 28.3486 14.7272 28.3003 14.7458L27.5192 15.0461C25.9437 15.8588 25.6697 17.6873 25.6697 18.7709C25.6697 19.4022 25.8582 19.6647 26.0048 19.7521C25.9322 19.9017 25.8187 20.0303 25.6705 20.1161C25.2132 20.3807 24.5133 20.8123 23.6052 21.4314C22.3369 22.2962 21.5357 23.7492 21.213 24.5588C21.155 24.7044 21.0181 24.8053 20.864 24.834C20.7576 24.8539 20.6365 24.885 20.5243 24.9321C20.3159 25.0195 20.2927 25.8466 20.3098 26.3593C20.3129 26.4514 20.2839 26.542 20.2259 26.6136L20.1154 26.7502C20.0446 26.8376 19.9382 26.8884 19.8258 26.8884H18.9567C18.8718 26.8884 18.7953 26.8605 18.735 26.8143C18.8522 26.7359 18.984 26.5836 19.0837 26.2881C19.1429 26.1125 19.1793 25.9426 19.216 25.7718C19.3065 25.3496 19.3982 24.9222 19.8372 24.3919C19.9864 24.2115 20.293 23.8529 20.674 23.4074L20.6742 23.4071L20.6743 23.407L20.6746 23.4066L20.6748 23.4065L20.6748 23.4065C21.5527 22.3797 22.825 20.8917 23.4776 20.0576C23.6831 19.8318 24.0257 19.2991 23.7516 18.974C23.4091 18.5677 22.7383 17.7636 22.5207 17.1186C22.4932 17.037 22.4665 16.9529 22.4398 16.8692L22.4398 16.8692L22.4398 16.8691C22.2766 16.3564 22.1199 15.8637 21.8411 16.1107C21.8368 16.1448 21.8319 16.1811 21.8267 16.2193L21.8267 16.2194V16.2194C21.7771 16.5858 21.7036 17.129 21.9021 17.6196L22.1746 18.1257C22.0307 17.9653 21.8996 17.8145 21.8087 17.7077C21.7625 17.7072 21.7162 17.7069 21.6698 17.707C21.4156 16.964 21.4827 16.2138 21.5497 15.9265C21.2757 15.7233 19.4947 15.9942 17.9192 16.2651C16.3436 16.536 14.3414 17.1095 13.819 17.755C13.5626 18.0719 14.0262 18.8042 14.4717 19.1743C14.2507 19.1516 13.9821 18.8619 13.7934 18.6583L13.7933 18.6582C13.7194 18.5785 13.6578 18.512 13.616 18.4799C13.5797 18.452 13.5486 18.4292 13.5186 18.4113C12.8974 19.0092 12.1301 19.8037 11.3812 20.6176L11.383 20.6362C11.3929 20.7399 11.4019 20.8353 11.4463 20.8909C11.5321 20.9983 11.7499 20.9679 12.0052 20.9322L12.0052 20.9322C12.1372 20.9137 12.2793 20.8938 12.4183 20.8909C12.7447 20.884 12.913 20.9567 12.9564 20.9939C13.2197 21.2942 13.7653 21.9428 13.8416 22.135ZM30.0306 21.2379C29.5135 20.5267 28.2799 18.93 26.0958 18.2776L26.1386 17.8963C26.1391 17.8924 26.1398 17.8886 26.1409 17.8848L26.2847 17.3633C26.3856 17.0694 26.5244 16.7513 26.7093 16.4514L26.8928 16.1974C26.9613 16.1071 27.1942 15.8453 27.5778 15.5202C27.7622 15.364 27.975 15.2536 28.1691 15.1787C28.1427 15.1909 28.1166 15.2039 28.0909 15.2178C28.0522 15.2387 28.0141 15.2601 27.9765 15.2819C28.0764 15.2278 28.1699 15.1834 28.2545 15.1475C28.3994 15.0975 28.529 15.0677 28.6215 15.0532C28.6093 15.1275 28.5992 15.2137 28.5926 15.3091C28.4456 15.3035 28.2398 15.3403 28.1943 15.5201C28.1258 15.791 28.2727 16.8069 28.5467 17.281C28.8207 17.755 29.6427 18.3645 30.1222 18.6354C30.3871 18.785 30.3803 18.914 30.3672 19.1593C30.3567 19.358 30.3421 19.6332 30.4647 20.0576C30.7387 21.0057 31.2867 22.3601 31.9718 23.1728C32.5226 23.8264 32.6305 23.9543 32.7585 23.9794C32.7897 23.9855 32.822 23.9855 32.8623 23.9855C32.9393 23.9855 32.9742 23.9409 32.9896 23.8865C32.9866 23.9557 32.9731 24.0249 32.9511 24.0892C32.8877 24.2745 32.9007 24.463 33.1385 24.5331C33.3364 24.5915 33.4864 24.6338 33.5937 24.663C33.6297 24.6728 33.6638 24.6874 33.6952 24.7062C33.6446 24.7412 33.6059 24.8268 33.6059 25.0013C33.6059 25.4155 33.9719 26.5532 34.2014 26.8342C34.1517 26.8592 34.0952 26.8734 34.0343 26.8734H33.9224C33.839 26.8734 33.7581 26.8457 33.6928 26.7937C33.2266 26.422 32.4208 25.7462 32.265 25.4831C32.1997 25.3728 32.0087 24.9887 31.761 24.4905L31.7609 24.4904C31.2132 23.3889 30.3881 21.7297 30.0306 21.2379ZM32.967 23.6883C32.9458 23.6162 32.9094 23.5502 32.8554 23.497C32.6714 23.316 32.4483 23.0842 32.2862 22.9127C32.4582 23.1684 32.7596 23.5137 32.967 23.6883ZM26.7017 16.4619C26.6121 16.5955 26.532 16.7341 26.4613 16.8768L26.5471 16.6789C26.5492 16.674 26.5519 16.6693 26.555 16.6649L26.7017 16.4619ZM29.3967 14.8709C29.385 14.9313 29.2387 14.9498 29.0328 14.9752L29.3165 14.9191C29.3427 14.9139 29.3641 14.8951 29.3726 14.8698L29.408 14.7648C29.4072 14.8002 29.4035 14.8356 29.3967 14.8709ZM26.3527 12.3575C27.1731 12.7431 28.838 13.5257 29.2917 14.3446C29.1476 14.1444 28.928 13.9362 28.8058 13.8202L28.8058 13.8202L28.8057 13.8202C28.7796 13.7953 28.7579 13.7748 28.7423 13.7594C28.6327 13.651 28.1943 13.3531 27.9888 13.2176C27.4865 12.9467 26.4133 12.3779 26.1393 12.2695C25.8793 12.1667 25.5166 12.0964 25.3436 12.0702C25.6003 12.0895 25.8851 12.1318 26.054 12.2152C26.1314 12.2535 26.233 12.3013 26.3527 12.3575ZM24.9185 12.0565C25.0103 12.055 25.1427 12.0571 25.288 12.0663H24.6583C24.747 12.0633 24.8338 12.06 24.9185 12.0565ZM11.152 18.046L11.2693 17.8565C11.8663 17.9641 12.3759 18.0734 12.5761 18.1614C13.0693 18.3781 13.408 18.1614 13.408 18.0259C13.408 17.5058 12.8375 17.4292 12.1718 17.3399C12.0384 17.322 11.9012 17.3036 11.764 17.281C10.7801 17.119 8.95544 17.0101 8.47593 17.0778C8.20192 17.1165 8.40743 17.4164 8.40743 17.4164C8.40743 17.4164 8.69188 17.4544 9.11376 17.515C8.85793 17.5113 8.63755 17.5174 8.47818 17.5275C8.47818 17.5589 8.61877 17.869 9.18113 18.8574C9.46246 19.3519 9.74936 19.6526 10.0201 19.8387L10.0786 19.7475L10.394 19.9899C10.805 19.4255 11.5996 18.202 11.49 18.0936C11.4206 18.025 11.2703 18.0252 11.152 18.046ZM12.7464 18.3593C12.7234 18.3523 12.6919 18.3415 12.6534 18.3276C12.8643 18.3974 12.9756 18.4101 13.1126 18.3855C13.1508 18.3786 13.185 18.3731 13.2159 18.3691C13.19 18.3737 13.1669 18.3781 13.1457 18.3822L13.1451 18.3823C12.9961 18.4107 12.9459 18.4203 12.7464 18.3593ZM13.1614 12.3906L13.1126 12.3958C13.0011 12.4093 12.7973 12.4662 12.5875 12.5944C12.7456 12.5019 12.9372 12.4255 13.1614 12.3906ZM15.7558 6.13669C15.5507 6.04041 15.1098 6.01448 14.8381 6.19327C14.815 6.20847 14.8038 6.23732 14.8188 6.2605C14.8638 6.32972 14.9995 6.41439 15.3113 6.39055C15.6349 6.36582 15.7617 6.25917 15.7835 6.18607C15.7897 6.16528 15.7755 6.14591 15.7558 6.13669Z" fill="white"/>
<path d="M18.1639 7.09458C18.6871 7.56009 17.0773 10.603 16.207 12.0662L13.113 12.3958C12.9246 12.4185 12.4732 12.5651 12.1741 12.9698C11.875 13.3745 10.7545 14.8715 10.2474 15.5879C10.0419 15.5202 9.38097 14.8737 9.18146 14.7046C8.93845 14.4987 8.96449 14.1726 9.00789 14.0353C9.07443 13.8752 9.31339 13.3506 9.73691 12.5338C10.1604 11.717 10.9317 10.9923 11.2644 10.732L14.2714 8.21416C14.1223 8.10645 13.1156 7.92155 12.3703 7.7999C12.1002 7.75583 11.8719 7.57093 11.7967 7.30785C11.7523 7.15264 11.7104 6.98488 11.6874 6.84187C11.6385 6.53806 12.0511 6.39731 12.2635 6.36491C12.4236 6.3484 12.8886 6.29985 13.4683 6.23771C14.1929 6.16003 14.6992 5.84069 15.1095 5.71123C15.4378 5.60766 15.7468 5.59903 15.8603 5.60766C15.8743 5.43505 15.5809 5.16174 15.4325 5.04666L14.4323 4.38314C14.2612 4.26968 14.2557 4.02047 14.4215 3.89953C14.5328 3.81835 14.6853 3.82646 14.794 3.91112C16.0962 4.92532 17.4925 4.72104 18.2377 4.40628C18.3946 4.33999 18.5778 4.36817 18.7156 4.46825C19.5942 5.106 20.7745 4.61542 21.4618 4.1494C21.614 4.04618 21.8215 4.05047 21.9881 4.12837C22.2311 4.24197 22.5236 4.31275 22.6784 4.33895C24.0822 4.48394 25.376 3.08173 25.8474 2.36249C26.0709 2.10702 26.3363 2.01438 26.4411 2H28.3261C28.3875 2 28.4221 2.07026 28.3841 2.11853C25.751 5.46971 20.3001 5.83174 17.8758 5.55324C17.9384 5.7277 17.9819 5.93305 17.9958 6.01392C18.8808 5.79518 19.6003 5.98824 20.0119 6.19487C20.1773 6.27784 20.2182 6.48619 20.0999 6.6284C19.4775 7.37665 18.5728 7.26464 18.1639 7.09458Z" stroke="white" stroke-width="0.744948"/>
<path d="M6.77669 16.6437C6.83918 16.3966 7.04573 16.2719 7.14119 16.2404L10.2506 15.5861C10.2688 15.5822 10.2849 15.5717 10.2957 15.5566L12.0698 13.0874C12.1851 12.8817 12.5801 12.4523 13.2375 12.3805C13.8949 12.3087 15.5079 12.1346 16.2322 12.0565C18.0783 12.0992 22.4001 12.1589 24.9181 12.0565C25.1805 12.052 25.7749 12.0774 26.0536 12.2152C26.7747 12.5717 29.6105 13.7589 29.3962 14.8709C29.3694 15.0099 28.629 14.9266 28.0905 15.2177C26.5343 16.0591 25.8927 17.6169 26.09 19.2331C26.1327 19.5826 25.9748 19.9397 25.67 20.116C25.2128 20.3807 24.5129 20.8122 23.6048 21.4314C22.3365 22.2961 21.5353 23.7492 21.2126 24.5587C21.1546 24.7043 21.0177 24.8052 20.8636 24.834C20.7571 24.8538 20.6361 24.885 20.5238 24.9321C20.3155 25.0195 20.2923 25.8466 20.3094 26.3593C20.3125 26.4514 20.2835 26.5419 20.2255 26.6136L20.1149 26.7502C20.0442 26.8376 19.9378 26.8884 19.8254 26.8884H18.9563C18.7183 26.8884 18.5461 26.6695 18.6122 26.4409C18.6712 26.2366 18.7521 25.9719 18.8575 25.6528C19.0797 24.9801 19.5808 24.2571 19.8035 23.9797L20.8884 22.6755C21.5942 21.7717 23.0442 19.899 23.1969 19.6381C23.3878 19.3121 23.2837 19.1748 22.9365 18.9003C22.6588 18.6806 22.0687 18.0136 21.8083 17.7076C19.2533 17.6802 16.4911 18.4913 15.4294 18.9003C15.2298 18.9832 14.7681 19.1542 14.5182 19.1748C14.2057 19.2006 13.8186 18.6354 13.6131 18.4322C13.4731 18.2938 13.3986 18.334 13.1122 18.3854C12.8258 18.4369 12.6522 18.3254 11.4459 17.8706C10.4808 17.5068 9.06501 17.4903 8.47775 17.5274C8.47775 17.5589 8.61834 17.8689 9.1807 18.8574C9.88365 20.0929 10.6214 20.1186 11.0553 20.1701C11.4893 20.2216 11.3157 20.7278 11.4459 20.8908C11.5761 21.0539 12.01 20.8994 12.4179 20.8908C12.7442 20.884 12.9126 20.9566 12.956 20.9938C13.2192 21.2941 13.7648 21.9428 13.8412 22.135C13.9367 22.3752 12.8866 22.2637 12.01 22.195C11.3088 22.1401 10.7053 21.7717 10.4912 21.5944C8.56448 20.0757 6.99366 18.1109 6.77669 17.8192C6.60312 17.5858 6.58288 17.3787 6.59446 17.3044C6.62917 17.1871 6.71421 16.8908 6.77669 16.6437Z" stroke="white" stroke-width="0.744948"/>
<path d="M5.37666 26.3092C5.7755 25.6732 6.39397 24.778 7.03738 24.1022C7.52912 23.5856 8.49892 22.1739 9.43975 20.7348L10.4815 21.6152C9.92208 22.2491 9.41652 22.8495 9.04667 23.3285C8.50861 24.0254 8.29985 24.5027 8.24125 24.7898C8.2164 24.9115 8.06676 25.0768 7.94254 25.0804C7.88632 25.0821 7.82323 25.0853 7.75362 25.0909C7.51896 25.1094 7.15188 25.9887 6.93538 26.599C6.88151 26.7509 6.73916 26.8545 6.57803 26.8545H5.68631C5.40174 26.8545 5.22548 26.5503 5.37666 26.3092Z" stroke="white" stroke-width="0.744948"/>
<path d="M13.2723 18.3594C13.4809 18.3251 13.5297 18.3736 13.528 18.4021C12.8582 19.0462 12.0168 19.9208 11.2115 20.8025L9.98285 19.8966C10.4962 19.0975 10.9432 18.376 11.2844 17.8228C11.6807 17.9873 12.5484 18.2989 12.7462 18.3594C12.9935 18.4349 13.0115 18.4021 13.2723 18.3594Z" stroke="white" stroke-width="0.744948"/>
<path d="M29.4171 17.6998C28.5432 16.9215 28.5254 15.5937 28.6257 15.0271C28.4021 15.0665 27.7996 15.2868 27.1786 15.8527C26.4226 16.6001 26.1234 17.7753 26.0684 18.2695C28.2695 18.9167 29.5111 20.5237 30.0304 21.2379C30.5496 21.9521 32.0551 25.129 32.2647 25.483C32.4205 25.7461 33.2264 26.422 33.6926 26.7936C33.7579 26.8456 33.8387 26.8734 33.9222 26.8734H34.0341C34.2915 26.8734 34.4713 26.6185 34.385 26.376L33.8626 24.909C33.8196 24.788 33.7174 24.6967 33.5935 24.6629C33.4862 24.6337 33.3361 24.5914 33.1383 24.5331C32.9004 24.463 32.8874 24.2744 32.9509 24.0892C33.019 23.8903 33.0049 23.6443 32.8551 23.4969C32.6319 23.2774 32.3511 22.9829 32.1916 22.8123C31.0461 21.4749 30.7336 19.6872 30.7097 18.7463C30.7057 18.5875 30.6112 18.4435 30.467 18.377C29.9362 18.132 29.5544 17.8333 29.4171 17.6998Z" stroke="white" stroke-width="0.744948"/>
</svg>
